<svg version="1" xmlns="http://www.w3.org/2000/svg" width="6666.667" height="6666.667" viewBox="0 0 5000.000000 5000.000000"><path d="M2379.5 569.1c-198.3 5.1-401 50.2-583 129.6-223.2 97.4-420.1 244.2-578.1 430.8-63 74.4-123.8 162-171.4 247-115.9 206.9-183.2 434.8-198.5 672-3.8 60-3.8 140.8 0 201.5 8.7 136.6 36.1 276.4 79 403 67.8 199.7 171.1 379.2 309.6 537.7 70.3 80.4 154.2 158.2 240.4 222.8 131.1 98.2 271.4 173.5 424 227.3 261.9 92.5 551.1 113.6 825.1 60.2 178.7-34.9 344.3-97.8 500.9-190.3 187.4-110.6 354.9-264 481-440.2 111-155.1 191.2-323.3 241-505.5 59.5-217.4 71.3-452.1 33.9-676.5-21.5-128.8-58.4-253.3-109.9-371-92.5-211-226.5-395.4-399.5-550-74.5-66.6-161-129.6-248.5-181.2-213.6-125.8-451.2-198.8-699.5-214.8-24.4-1.6-90-3.6-107.5-3.3-5.5.1-23 .5-39 .9zm85 105.9c138.4 4.2 257.2 23.2 386.5 61.6 103.5 30.8 211.9 77.4 307 131.9 198.3 113.7 367.6 271.6 494.7 461.7 83.3 124.5 143.9 253.3 187.6 399.3 39.4 131.1 60.7 278.5 60.7 419.5 0 128.6-18.2 265.7-51.1 386-45.3 165.1-114.6 314-211.2 453.5-72.3 104.3-161 202.1-257.7 284.1-120.8 102.5-257.3 185.2-401 243.2-150.7 60.7-305.6 95.5-469 105.2-45.8 2.8-125.7 2.8-172.5 0-205.1-12-402.7-65.4-584-157.9-186.1-94.9-347.2-225.9-480.7-390.9-81.8-101-153.9-220.4-204.3-338.1-45.5-106.4-76.3-207.9-95.9-315.6-11.9-65.6-17.1-108.4-22.3-182.5-2.5-36.4-2.5-137.4 0-174 5.2-74.6 11.2-122.9 23.3-188.5 20.6-110.7 53.6-216.2 103-328.5 9.5-21.6 42-86.5 55.4-110.5 54.9-98.5 122.2-192.6 194.5-272 98.1-107.8 199.7-192.7 320-267.7 160.1-99.7 344.3-169 532-200.2 96-15.9 191.1-22.5 285-19.6z"/><path d="M1970 1288.6c-10.8 1.3-39.3 7.7-41.5 9.3-.5.4-3.9 1.8-7.5 3.1-18 6.4-38.2 17.9-54 30.8-4.1 3.3-163.5 162.1-354.1 352.9-364.5 364.7-352.5 352.4-365.7 374.4-14.1 23.5-24.8 54.9-28.2 82.9-1.4 12.2-1.2 33.1.5 46.2 3.6 27.4 13.5 55.6 28.3 80.3 12.2 20.5 3.1 11.2 367.4 375.5 191 191 350.9 350.1 355.3 353.7 28 22.5 61.6 37.5 96.5 42.9 14.1 2.2 44.1 2.5 58 .5 59.1-8.2 112-42.4 144.4-93.4 6.9-11 15.5-29.2 19.9-42.7 22-66.6 9.6-136.5-34-191-3.3-4.1-128.2-129.7-277.6-279.1l-271.5-271.6 269.9-269.9c148.5-148.4 272.7-273.1 276-277 26.3-30.7 42.9-70.1 46.9-111.3 1.3-13 1.3-29.8 0-41.9-6-56.8-37.7-110-84.4-141.6-39.2-26.6-93.8-39.1-144.6-33zM2831 1287.7c-9.3.7-25.8 3.4-36 5.9-22.2 5.5-51 18.2-66.5 29.4-57.1 41.2-88.4 110.8-81.5 181.1 3.5 35.6 15.6 68.6 35.9 98.1 8.2 12 16.2 20 282.6 286.6l274.1 274.3-271.9 272.4c-149.6 149.9-274.9 276.2-278.4 280.7-10 12.6-15.7 21.5-22.2 34.5-19.9 39.8-26 86.1-17.1 130.4 7.8 38.4 27.1 74.2 55.4 102.5 30.7 30.7 69.6 50.4 113 57.1 15.4 2.4 45 2.3 60.6-.1 34.2-5.3 66.4-19.4 94.5-41.3 11.1-8.7 699.1-696.2 708.9-708.5 44.1-55.1 57-127.4 34.4-192.7-7.7-22.4-21.4-47.2-35.3-64.1-3-3.6-162.6-163.6-354.7-355.6-339.5-339.3-349.6-349.3-360.3-356.3-35.4-23.2-76-35.4-116.3-34.9-8.1.1-16.7.3-19.2.5z"/><path d="M2419 2004c-22.7 3-47.6 13.2-65.9 27-9.2 7-24.4 22.6-30.1 31-4.3 6.4-29.2 47.5-30.2 50-.4.8-17.1 28.7-37.1 62-20.1 33.3-53.1 88.2-73.3 122-94.6 158.2-88.3 147.3-93.9 162.5-6.1 16.3-7.8 26.4-7.9 46 0 12.8.4 19.1 1.8 25.4 6.7 31 17.5 51.3 38.5 72.1 21.5 21.3 44 33.4 72.6 39.1 10.3 2.1 38.6 1.8 49.5-.5 38.6-8 69-27.9 89.7-58.7 2.8-4.1 24.5-40 48.3-79.9 23.8-39.9 43.7-73.1 44.3-73.8.8-1 9.2 15.1 32.2 61 51.4 102.7 56.2 111.3 70.4 125.6 21.4 21.7 43.6 33.9 73.1 40.4 13.9 3 41.2 3.2 53.5.5 13.2-3 25.4-7.5 36.7-13.5 27.2-14.5 46.7-34.3 59.8-60.7 10.6-21.6 14.3-37 14.4-61 0-17.8-1.4-27.2-6.6-43.4-4.6-14.3-197.6-398.6-207.5-413.2-10.4-15.4-25.7-30.2-40.8-39.7-13-8.1-32.5-15.7-47.8-18.7-9.6-1.9-34.4-2.8-43.7-1.5zM1558.4 3824.5c-32.3 4.8-60.3 18.9-81 40.7-16.8 17.7-26.8 36.6-34.1 64.3l-2.7 10-.4 51.4c-.3 42.5-.1 53.2 1.2 61 8.1 51 41.1 91.4 88.1 107.7 22.6 7.9 28 8.4 92.2 8.4 60.5 0 66.9-.5 86.3-6.5 40.9-12.7 73.6-45 86.8-85.5 6.7-20.5 8.2-35 8.2-80.5 0-33.5-1-50.8-3.6-63.1-10.1-49.2-43.2-86.5-90.5-102.2-19.3-6.4-20.6-6.5-83.9-6.8-44.6-.2-59.5.1-66.6 1.1zm127.1 61.8c8.7 2.5 23.2 9.9 29 14.8 12.2 10.5 20.3 23.3 24.7 39.4 2.2 7.7 2.2 9.5 2.2 55 0 45.6 0 47.2-2.2 55-6.4 22.9-18.8 38.3-38.6 48-17.1 8.4-26.5 9.5-80.1 9.5-40.8-.1-53.7-.8-65.2-4-7.2-2-17.7-6.8-23.7-10.9-9.4-6.3-21.5-21.8-25.5-32.5-5.1-13.8-5.6-19.1-5.6-65.1 0-37.8.2-44 1.8-51.4 3.3-15.4 8.9-26.1 19.1-37 11.1-11.7 25.8-19.1 44.6-22.4 1.4-.3 27.5-.4 58-.3 49 .2 56.2.4 61.5 1.9zM1155 3829c-5.8 1-16.2 4.5-22 7.4-24.8 12.4-41.2 36.5-45 66.1-.8 6.4-1 34.9-.8 100 .3 90.3.4 91.1 2.6 98.8 6.8 24.4 18.4 39.2 40.2 51.4 7.7 4.3 23.3 9.1 33.7 10.3 5.4.6 51.5 1 118.6 1H1392v-61l-113.2-.2c-113.1-.3-113.3-.3-117.9-2.4-5.8-2.7-9.5-6.6-11.4-12.3-2.3-6.8-2.3-178.7 0-185.2 2-5.5 5.8-9.6 11.5-12.3 4.5-2.1 4.7-2.1 117.8-2.4l113.2-.3V3828l-116.2.1c-64 .1-118.3.5-120.8.9zM1881.3 3830.1c-5.8 2.2-12.4 8.3-15.6 14.3l-2.2 4.1v294l2.5 4.9c2.8 5.6 8.4 10.5 15.6 13.8l4.9 2.3 83.5.3c84.4.3 103.4-.2 118.6-3.3 18.2-3.7 40.7-13.8 55.6-24.8 27.9-20.6 46.7-53.1 52.4-90.2 1.9-12.7 1.9-87.3 0-100-2.7-17.2-7.3-31.4-14.7-45.4-7.5-14.1-14.5-23.5-25-33.6-20.4-19.6-44.6-31.6-73.6-36.5-10.9-1.9-16.6-2-104.1-1.9-90.1 0-92.8.1-97.9 2zm195.4 60.2c15.8 3.5 29 10.5 39.1 20.9 6.3 6.4 8.2 9.1 12.7 18 7.5 14.6 9.4 28.2 9.4 66.3 0 26.9-.9 41-3.5 51.3-5.7 22.8-21.6 41.1-43.4 49.9-14.1 5.7-13.4 5.6-93.7 6l-74.3.4v-215.2l73.3.4c61.9.3 74.3.7 80.4 2zM2277.5 3829.3c-8.3 3.3-13.7 8.1-17.7 15.7l-2.3 4.5v246l2.3 8c9.5 32.6 37.6 55.4 73.5 59.4 6.3.7 47.6 1.1 119.2 1.1H2562v-61l-113.7-.2c-108.4-.3-114-.4-118.1-2.2-4.6-2-9.3-7.2-11-12.5-.9-2.5-1.2-30-1.2-101.7V3888h244v-60l-140.7.1c-105.4 0-141.6.3-143.8 1.2zM2602.5 3830.2c.4 2 10.5 57.4 50 277.2 3.7 20.4 7.5 39.3 8.6 42.2 3.9 10.5 15.2 17.8 27.4 17.8 9.2 0 16.1-3 21.8-9.4 2.3-2.7 29.2-45.8 59.7-95.9 30.5-50.1 55.7-91.1 56-91.1.3 0 25.8 41.4 56.5 92 30.8 50.7 57.6 93.7 59.5 95.7 8.4 8.6 22.7 11.3 33.7 6.4 6-2.7 12.6-9.3 15.3-15.4 1.1-2.5 10.7-53.6 23.5-125.2 11.9-66.6 24.7-138 28.4-158.8l6.7-37.7h-61.4l-.6 2.7c-.3 1.6-9.4 51.1-20.1 110.2-10.7 59-19.6 107.5-19.8 107.7-.2.2-21.8-34-48-76-26.3-41.9-49.3-78.1-51.3-80.4-1.9-2.3-6-5.3-9.2-6.8-11.3-5.4-26.9-2.9-34.5 5.5-1.8 2-25 38.4-51.6 80.9-26.6 42.4-48.6 77.1-48.8 76.9-.1-.2-8-42.4-17.3-93.8-9.4-51.4-18.4-100.5-20-109.2-1.7-8.8-3-16.3-3-16.8s-13.1-.9-31-.9h-31l.5 2.2zM3119.3 3830.1c-5.8 2.2-12.4 8.3-15.6 14.3l-2.2 4.1V3972c0 133-.2 127.3 5.2 140.5 8.7 20.8 26.2 37.4 47.8 45.3 15.8 5.8 10 5.6 135.3 5.9l115.2.4V4103l-113.2-.2-113.3-.3-5-2.5c-6.7-3.4-10.3-8.7-11.5-17-.6-3.7-1-47.9-1-100.8V3888h244v-60l-140.2.1c-137.6 0-140.4 0-145.5 2zM3535 3828.7c-1.4.2-7 1.8-12.5 3.5-27.6 8.3-47.4 27.9-55.7 54.8l-2.3 7.5-.3 134.7-.2 134.8h59.9l.3-128.8c.4-142.6-.1-133.4 7-140.3 6.7-6.5 5.1-6.4 87.8-6.4 80.8 0 81.1 0 92.1 5.5 6.8 3.5 15.5 11.9 19.1 18.7 3.2 5.9 6.1 14.9 7.8 24.7 1.7 9.1.7 37.7-1.5 46-4.3 16.2-15.9 27.8-33.9 33.9-5.9 2.1-8.2 2.1-79.8 2.5l-73.8.3v61l76.8-.4c84.5-.4 80.7-.1 100.7-6.9 22.7-7.7 44.2-24.3 56-43.3 5.6-9 11.9-24.6 14.2-35.5 2.7-12.5 2.7-65.5 0-78-2.6-11.8-5.1-19-10.4-29.5-13.9-27.5-35.1-45.9-62.7-54.4-16-4.9-19.5-5.1-105.6-5-44.3.1-81.6.4-83 .6z"/><path d="M2342 3995.5v30.5h192v-61h-192v30.5zM3186 3995.5v30.5h192v-61h-192v30.5z"/></svg>